<?xml version="1.0" encoding="UTF-8"?>
<!-- Generated by Pixelmator Pro 3.5.3 -->
<svg width="1280" height="640" viewBox="0 0 1280 640" xmlns="http://www.w3.org/2000/svg">
    <g id="Group-copy">
        <g id="Group">
            <path id="Path" fill="#335da3" stroke="none" d="M 141.887497 283.960388 L 138.861893 302.939209 C 143.812866 295.237701 153.439819 280.10965 176.544479 280.10965 C 199.3741 280.10965 205.150269 296.612976 207.350693 302.664215 C 211.201477 296.062836 220.27832 280.934784 243.93309 280.934784 C 265.387421 280.934784 279.690308 293.862427 279.690308 314.491577 C 279.690308 318.617401 278.865143 323.56842 278.590088 326.31897 L 265.112366 405.810059 L 218.903046 405.810059 L 231.005493 333.195374 C 231.280533 330.994904 231.830643 327.144165 231.830643 324.66864 C 231.830643 320.542786 230.455368 313.941467 222.203705 313.941467 C 209.826202 313.941467 207.625763 327.694244 206.250488 335.395813 L 194.423096 405.810059 L 149.31398 405.810059 L 161.416428 333.745453 C 161.966537 330.994904 162.516663 327.144165 162.516663 324.393585 C 162.516663 314.216522 153.989944 313.941467 152.889709 313.941467 C 140.512222 313.941467 138.311768 326.043915 136.936478 333.745453 L 124.834045 406.085022 L 80 406.085022 L 100.629166 283.960388 L 141.887497 283.960388 Z"/>
            <path id="path1" fill="#335da3" stroke="none" d="M 334.701416 353.824493 C 334.426331 355.474823 333.876251 359.050598 333.876251 361.251007 C 333.876251 373.353455 343.503174 377.754364 352.029907 377.754364 C 366.332794 377.754364 371.008728 367.302277 372.934113 362.626312 L 413.917419 369.2276 C 409.791565 377.479279 403.190216 390.131836 383.111206 400.859009 C 377.059937 404.159698 365.782684 409.110657 348.729248 409.110657 C 312.972046 409.110657 287.666931 387.381287 287.666931 351.348999 C 287.666931 314.491577 315.172455 280.65979 359.181335 280.65979 C 398.789368 280.65979 419.968628 305.689819 419.968628 339.796722 C 419.968628 345.297821 419.143463 349.14859 418.868408 353.5495 L 334.701416 353.5495 Z M 374.859528 330.444824 C 375.134552 329.069519 375.409637 326.593994 375.409637 324.66864 C 375.409637 318.342346 371.558838 308.440369 360.0065 308.440369 C 356.430786 308.440369 341.852875 309.815643 338.27713 330.444824 L 374.859528 330.444824 Z"/>
            <path id="path2" fill="#335da3" stroke="none" d="M 508.536499 319.992706 C 504.68573 310.365753 494.783722 308.165283 485.706879 308.165283 C 478.005371 308.165283 472.779266 310.915863 472.779266 315.316742 C 472.779266 321.367981 477.730286 322.193146 487.632294 324.11853 C 511.287048 329.069519 516.238037 330.444824 523.389526 334.845673 C 535.216858 341.722046 541.818237 351.624084 541.818237 364.826721 C 541.818237 378.854553 533.016479 408.560608 480.75592 408.560608 C 463.427399 408.560608 447.199097 405.259888 434.271515 396.458099 C 422.169067 388.206421 419.418518 378.854553 417.493134 371.97818 L 455.72583 366.477051 C 457.651215 370.87796 461.226959 379.679779 481.581055 379.679779 C 495.058777 379.679779 497.534271 374.453644 497.534271 371.97818 C 497.534271 367.302277 494.783722 366.752136 473.604462 362.076141 C 460.12674 358.775543 429.320496 352.174225 429.320496 323.843445 C 429.320496 303.489349 444.448547 280.65979 485.431854 280.65979 C 500.284821 280.65979 513.762573 283.685333 526.140076 291.111847 C 539.342712 298.813385 542.368347 306.514984 544.568787 312.016083 L 508.536499 319.992706 Z"/>
            <path id="path3" fill="#335da3" stroke="none" d="M 632.036438 319.992706 C 628.185669 310.365753 618.283691 308.165283 609.206848 308.165283 C 601.505249 308.165283 596.279236 310.915863 596.279236 315.316742 C 596.279236 321.367981 601.230225 322.193146 611.132202 324.11853 C 634.786987 329.069519 639.737976 330.444824 646.889404 334.845673 C 658.716797 341.722046 665.318176 351.624084 665.318176 364.826721 C 665.318176 378.854553 656.516357 408.560608 604.255798 408.560608 C 586.927307 408.560608 570.699036 405.259888 557.771484 396.458099 C 545.669006 388.206421 542.918457 378.854553 540.993042 371.97818 L 579.225769 366.477051 C 581.151184 370.87796 584.726868 379.679779 605.080994 379.679779 C 618.558716 379.679779 621.309265 374.453644 621.309265 371.97818 C 621.309265 367.302277 618.558716 366.752136 597.379456 362.076141 C 583.901733 358.775543 553.095459 352.174225 553.095459 323.843445 C 553.095459 303.489349 568.223511 280.65979 609.206848 280.65979 C 624.059814 280.65979 637.537537 283.685333 649.915039 291.111847 C 663.117676 298.813385 666.143311 306.514984 668.34375 312.016083 L 632.036438 319.992706 Z"/>
            <path id="path4" fill="#335da3" stroke="none" d="M 682.921753 314.216522 C 688.147766 303.764435 699.700134 280.384705 748.659973 280.384705 C 767.088745 280.384705 805.046387 283.960388 805.046387 315.866852 C 805.046387 326.86908 793.218994 384.080597 793.218994 395.082825 C 793.218994 399.208649 793.769043 402.234283 794.594299 406.085022 L 746.734558 406.085022 C 746.184509 403.334473 746.184509 400.859009 746.184509 399.758789 C 746.184509 397.55838 746.184509 393.982605 747.284729 386.006012 C 742.058655 393.70752 731.606506 409.110657 706.851501 409.110657 C 685.947327 409.110657 668.068726 395.90802 668.068726 373.903595 C 668.068726 360.700867 674.394958 340.346771 705.751282 332.645264 C 716.75354 330.169739 717.853699 329.894714 755.811462 326.593994 C 756.636597 324.393585 757.186707 321.643036 757.186707 319.442596 C 757.186707 314.766663 753.610962 309.540558 743.158875 309.540558 C 729.681152 309.540558 724.730103 318.892487 722.529724 323.018311 L 682.921753 314.216522 Z M 744.809204 371.153046 C 749.210144 365.101776 750.585388 356.575043 751.410522 348.048401 C 737.9328 349.423676 718.128784 351.899139 718.128784 369.2276 C 718.128784 376.92923 724.180054 379.404694 728.855957 379.404694 C 731.881592 379.404694 739.03302 378.304504 744.809204 371.153046 Z"/>
            <path id="path5" fill="#335da3" stroke="none" d="M 949.4505 279.559509 C 945.049622 279.00943 942.023987 278.734375 938.448303 278.734375 C 925.795715 278.734375 922.495117 284.510559 920.294617 288.361298 C 928.546265 293.587341 938.998413 300.463745 938.998413 317.242126 C 938.998413 329.894714 932.947205 340.621857 924.695496 346.398041 C 916.718933 352.449219 907.09198 357.125183 882.06189 357.125183 C 878.76123 357.125183 864.183289 356.024994 861.432739 356.024994 C 855.38147 356.024994 851.255676 360.425873 851.255676 364.551727 C 851.255676 371.153046 859.507324 371.703094 860.882568 371.703094 L 898.015076 372.803375 C 920.019531 373.353455 936.522888 385.455872 936.522888 405.810059 C 936.522888 421.763245 925.52063 434.690857 913.693298 440.46698 C 905.166565 444.31781 892.789063 448.718628 865.008423 448.718628 C 843.554138 448.718628 827.600952 446.793304 816.048584 441.842255 C 806.696716 437.991516 799.545227 428.914703 799.545227 419.012695 C 799.545227 404.709778 811.647705 399.758789 820.999573 395.632965 C 816.048584 391.782196 809.447266 386.831146 809.447266 376.104004 C 809.447266 362.626312 819.349304 352.724274 839.153198 347.223175 C 835.027405 344.747681 822.374817 337.596222 822.374817 319.992706 C 822.374817 306.514984 831.176636 294.412567 841.353699 288.911438 C 853.456177 282.310059 869.684387 280.384705 883.437195 280.384705 C 892.513977 280.384705 896.639832 281.209839 902.14093 282.310059 C 904.616516 269.932556 908.74231 248.203186 939.548523 248.203186 C 943.949402 248.203186 948.350281 248.753326 952.20105 249.028412 L 949.4505 279.559509 Z M 873.810242 407.735382 C 852.355957 406.635193 850.155457 406.360107 845.204468 406.085022 C 841.903809 408.010437 838.328125 410.210876 838.328125 414.611755 C 838.328125 423.413574 860.607605 423.68866 868.859253 423.68866 C 891.138733 423.68866 896.914917 420.663025 896.914917 414.611755 C 896.639832 408.560608 892.513977 408.285522 873.810242 407.735382 Z M 883.437195 304.314545 C 867.484009 304.314545 866.658752 320.542786 866.658752 323.018311 C 866.658752 331.820099 873.535156 335.395813 880.41156 335.395813 C 891.963928 335.395813 896.089783 325.493805 896.639832 319.992706 C 897.465027 312.566193 894.439392 304.314545 883.437195 304.314545 Z"/>
            <path id="path6" fill="#335da3" stroke="none" d="M 984.107544 353.824493 C 983.832458 355.474823 983.282288 359.050598 983.282288 361.251007 C 983.282288 373.353455 992.909241 377.754364 1001.435974 377.754364 C 1015.738892 377.754364 1020.414795 367.302277 1022.34021 362.626312 L 1063.598511 369.502686 C 1059.472778 377.754364 1052.87146 390.406921 1032.792358 401.134064 C 1026.741089 404.434753 1015.463806 409.385742 998.410339 409.385742 C 962.653137 409.385742 937.348083 387.656372 937.348083 351.624084 C 937.348083 314.766663 964.853638 280.934784 1008.862549 280.934784 C 1048.470459 280.934784 1069.64978 305.964844 1069.64978 340.071716 C 1069.64978 345.572815 1068.824585 349.423676 1068.274536 353.824493 L 984.107544 353.824493 Z M 1024.265625 330.444824 C 1024.540649 329.069519 1024.815674 326.593994 1024.815674 324.66864 C 1024.815674 318.342346 1021.23999 308.440369 1009.412598 308.440369 C 1005.836914 308.440369 991.258972 309.815643 987.683228 330.444824 L 1024.265625 330.444824 Z"/>
        </g>
        <g id="g1">
            <path id="path7" fill="#329fdd" fill-rule="evenodd" stroke="none" d="M 1029.216553 219.872498 C 1025.915894 221.797821 1026.741089 227.574005 1030.316772 235.550598 C 1042.694336 263.056152 1059.472778 285.335693 1081.202148 302.114075 C 1079.001709 291.111847 1079.826782 282.310059 1083.402588 274.333466 C 1086.978271 266.631927 1093.854614 261.130829 1103.756714 258.655334 L 1102.656494 251.228821 C 1085.878052 235.825684 1066.349121 223.998322 1044.619751 218.222137 C 1039.943726 217.121948 1034.442627 216.846863 1029.216553 219.872498 L 1029.216553 219.872498 Z"/>
            <path id="path8" fill="#e0a45b" fill-rule="evenodd" stroke="none" d="M 1114.20874 255.079559 C 1121.9104 268.282288 1127.411499 280.65979 1130.161987 292.487152 L 1130.437012 294.687561 L 1131.262207 296.888031 C 1141.164185 301.013885 1151.066162 302.939209 1161.518311 301.563934 C 1172.520508 300.18866 1180.222046 295.512756 1185.173096 287.811157 L 1190.949219 274.608521 C 1183.797852 261.405884 1171.695313 253.154236 1154.916992 250.128601 C 1140.88916 248.203186 1127.411499 249.853546 1114.20874 255.079559 L 1114.20874 255.079559 Z"/>
            <path id="path9" fill="#335da3" fill-rule="evenodd" stroke="none" d="M 1130.437012 292.487152 C 1127.411499 280.384705 1122.185303 268.007202 1114.483765 255.079559 L 1113.658691 253.97937 L 1109.532837 247.653107 C 1107.607422 245.177551 1106.232178 244.352417 1104.581787 245.177551 C 1102.931519 246.002777 1102.106323 247.378052 1102.656494 250.403687 L 1102.656494 251.503876 L 1103.756714 258.930328 L 1104.031738 261.405884 L 1117.509399 298.538391 L 1118.884766 301.563934 C 1123.285645 308.715393 1128.236572 314.766663 1133.187622 319.167511 L 1131.262207 298.263336 L 1130.437012 294.962616 L 1130.437012 292.487152 L 1130.437012 292.487152 Z"/>
            <path id="path10" fill="#ce5a36" fill-rule="evenodd" stroke="none" d="M 1114.20874 255.079559 C 1127.411499 249.853546 1140.88916 248.478241 1154.916992 250.67868 C 1171.695313 253.704285 1183.522827 261.955963 1190.949219 275.158661 C 1201.676514 246.277832 1203.326782 222.072906 1193.424805 202.819031 C 1191.774414 199.518402 1189.023926 196.492767 1185.998291 194.292297 C 1179.947021 189.891449 1173.070679 190.716583 1165.369141 194.292297 C 1135.388062 208.87027 1116.959351 227.29895 1110.633057 249.303375 L 1113.108521 254.254425 L 1114.20874 255.079559 L 1114.20874 255.079559 Z"/>
            <path id="path11" fill="#43a756" fill-rule="evenodd" stroke="none" d="M 1104.031738 261.405884 L 1103.756714 258.930328 C 1093.854614 261.405884 1087.253296 266.907013 1083.402588 274.608521 C 1079.551758 282.585114 1079.001709 291.386932 1081.202148 302.38916 L 1089.178711 307.615204 C 1097.155396 310.090668 1104.856934 311.190918 1112.55835 308.715393 L 1119.15979 301.563934 L 1117.784546 298.538391 L 1104.031738 261.405884 Z"/>
            <path id="path12" fill="#8bbe5b" fill-rule="evenodd" stroke="none" d="M 1089.178711 307.615204 L 1081.202148 302.38916 C 1089.178711 322.743256 1100.455933 338.146362 1117.234375 346.122955 C 1119.709839 347.223175 1122.735474 347.223175 1125.486084 346.398041 C 1127.136353 345.8479 1128.236572 343.922546 1128.786743 342.272217 C 1131.262207 336.771088 1132.362427 329.069519 1133.187622 318.892487 C 1128.236572 314.491577 1123.285645 308.440369 1118.884766 301.28894 L 1112.283447 308.440369 C 1105.131958 311.190918 1097.155396 309.815643 1089.178711 307.615204 Z"/>
            <path id="path13" fill="#f2ca3c" fill-rule="evenodd" stroke="none" d="M 1162.61853 338.146362 C 1165.644165 338.421448 1168.119629 336.771088 1170.045044 335.120758 C 1178.571777 328.244354 1184.898071 319.717621 1188.748779 309.265533 C 1193.14978 297.713165 1193.699829 286.435883 1190.949219 274.883606 L 1185.173096 288.086243 C 1180.497192 295.787842 1172.520508 300.463745 1161.518311 301.83902 C 1151.066162 302.939209 1140.88916 301.013885 1131.262207 297.163116 L 1131.262207 298.263336 L 1133.187622 319.167511 C 1139.78894 326.31897 1148.040649 332.370178 1157.667603 336.771088 C 1159.317871 337.321167 1160.96814 337.871307 1162.61853 338.146362 L 1162.61853 338.146362 Z"/>
        </g>
    </g>
</svg>
